<svg width="50" height="50" viewBox="0 0 50 50" fill="none" xmlns="http://www.w3.org/2000/svg">
<circle cx="25" cy="25" r="25" fill="url(#paint0_linear_2_20)"/>
<path d="M34.7953 33.9182L30.0585 29.1814L34.7953 33.9182ZM30.0585 29.1814C30.8188 28.4211 31.4219 27.5185 31.8333 26.5251C32.2448 25.5318 32.4566 24.4671 32.4566 23.3919C32.4566 22.3167 32.2448 21.252 31.8333 20.2587C31.4219 19.2653 30.8188 18.3627 30.0585 17.6024C29.2982 16.8421 28.3956 16.239 27.4022 15.8276C26.4089 15.4161 25.3442 15.2043 24.269 15.2043C23.1938 15.2043 22.1291 15.4161 21.1358 15.8276C20.1424 16.239 19.2398 16.8421 18.4795 17.6024C16.9441 19.1379 16.0815 21.2204 16.0815 23.3919C16.0815 25.5634 16.9441 27.6459 18.4795 29.1814C20.015 30.7168 22.0975 31.5794 24.269 31.5794C26.4405 31.5794 28.523 30.7168 30.0585 29.1814V29.1814Z" stroke="white" stroke-width="3" stroke-linecap="round" stroke-linejoin="round"/>
<defs>
<linearGradient id="paint0_linear_2_20" x1="0" y1="25" x2="50" y2="25" gradientUnits="userSpaceOnUse">
<stop stop-color="#2AF598"/>
<stop offset="1" stop-color="#009EFD"/>
</linearGradient>
</defs>
</svg>
